# xmcd
#
# Track frame offsets: 
#        150
#        12084
#        21013
#        30422
#        44634
#        57100
#        71937
#        89101
#        100550
#        111671
#        126685
#        141017
#        153443
#
# Disc length: 2213 seconds
#
# Revision: 0
# Processed by: cddbd v1.5.2PL0 Copyright (c) Steve Scherf et al.
# Submitted via: ExactAudioCopy v0.99pb5
#
DISCID=b808a30d
DTITLE=Tommy James  - Christian Of The World [1971]  FLAC
DYEAR=1900
DGENRE=
TTITLE0=Christian Of The World
TTITLE1=Kings And Things
TTITLE2=I'm Comin' Home
TTITLE3=Sing, Sing, Sing
TTITLE4=Draggin' The Line
TTITLE5=Sail A Happy Ship
TTITLE6=Light Of Day
TTITLE7=Bits And Pieces
TTITLE8=I Believe In People
TTITLE9=Church St. Soul Revival
TTITLE10=Another Hill To Climb
TTITLE11=Adrienne
TTITLE12=Silk, Satin, Carriage Waiting
EXTD=
EXTT0=
EXTT1=
EXTT2=
EXTT3=
EXTT4=
EXTT5=
EXTT6=
EXTT7=
EXTT8=
EXTT9=
EXTT10=
EXTT11=
EXTT12=
PLAYORDER=
